<?xml version="1.0" encoding="UTF-8" standalone="no"?>
<!DOCTYPE svg PUBLIC "-//W3C//DTD SVG 1.1//EN" "http://www.w3.org/Graphics/SVG/1.1/DTD/svg11.dtd">
<svg xmlns="http://www.w3.org/2000/svg" xmlns:xlink="http://www.w3.org/1999/xlink" version="1.1" width="253.983pt" height="219.504pt" viewBox="0 0 253.983 219.504">
<g enable-background="new">
<g id="Layer-1" data-name="Layer 1">
<clipPath id="cp0">
<path transform="matrix(1,0,0,-1,0,219.504)" d="M 0 219.504 L 253.983 219.504 L 253.983 0 L 0 0 Z "/>
</clipPath>
<g clip-path="url(#cp0)">
<path transform="matrix(1,0,0,-1,205.0965,200.2192)" d="M 0 0 C 1.833 0 4.881 .053 6.041 1.334 C 7.026 2.42 7.036 4.674 7.045 6.049 C 7.062 9.186 7.032 12.32 7.032 15.459 C 7.032 16.901 7.483 18.202 8.602 19.149 C 9.864 20.217 11.737 20.458 13.333 20.458 C 14.928 20.458 16.793 20.211 18.059 19.149 C 19.187 18.202 19.629 16.901 19.629 15.459 L 19.629 6.051 C 19.641 4.676 19.656 2.414 20.643 1.33 C 21.801 .053 24.842 0 26.672 0 L 26.672 16.153 C 26.672 17.467 26.43 18.747 25.955 19.973 C 25.463 21.249 24.676 22.354 23.691 23.297 C 22.54 24.397 21.076 25.153 19.584 25.676 C 17.613 26.37 15.411 26.588 13.333 26.588 C 11.251 26.588 9.051 26.368 7.076 25.676 C 5.583 25.153 4.133 24.397 2.981 23.297 C 1.995 22.352 1.201 21.247 .705 19.971 C .229 18.747 0 17.465 0 16.153 Z M -11.068 10.977 C -11.068 9.531 -11.516 8.23 -12.637 7.285 C -14.737 5.518 -20.022 5.512 -22.115 7.287 C -23.229 8.232 -23.664 9.539 -23.664 10.977 L -23.664 13.23 C -23.664 14.664 -23.227 15.971 -22.116 16.915 C -19.986 18.723 -14.772 18.717 -12.637 16.915 C -11.519 15.971 -11.068 14.674 -11.068 13.23 Z M -21.126 35.086 L -27.936 35.086 C -27.863 32.864 -27.156 30.842 -25.014 29.807 C -24.324 29.473 -23.435 29.239 -22.693 29.053 C -22.178 28.922 -21.242 28.674 -20.917 28.219 C -20.239 27.147 -20.12 24.907 -20.165 24.221 L -20.619 24.159 C -21.638 24.018 -22.649 23.79 -23.621 23.45 C -25.122 22.924 -26.577 22.17 -27.734 21.063 C -28.721 20.118 -29.513 19.02 -30.011 17.745 C -30.488 16.52 -30.715 15.238 -30.715 13.926 L -30.715 10.275 C -30.715 8.963 -30.484 7.682 -30.01 6.457 C -29.517 5.18 -28.72 4.082 -27.734 3.139 C -26.579 2.033 -25.121 1.277 -23.621 .754 C -21.649 .064 -19.448 -.152 -17.37 -.152 C -15.291 -.152 -13.085 .061 -11.111 .752 C -9.619 1.275 -8.172 2.033 -7.025 3.139 C -6.043 4.084 -5.234 5.18 -4.74 6.457 C -4.266 7.686 -4.043 8.961 -4.043 10.275 L -4.043 13.926 C -4.043 15.24 -4.269 16.52 -4.74 17.747 C -5.234 19.026 -6.043 20.118 -7.025 21.065 C -8.174 22.17 -9.613 22.928 -11.111 23.45 C -11.617 23.625 -12.111 23.764 -12.628 23.901 C -12.619 25.545 -12.542 27.872 -13.005 29.409 C -13.233 30.161 -13.762 30.641 -14.478 30.942 C -15.176 31.237 -16.353 31.444 -17.1 31.596 C -17.986 31.776 -19.104 32.067 -19.834 32.622 C -20.225 32.918 -20.535 33.286 -20.754 33.727 C -20.965 34.153 -21.079 34.616 -21.126 35.086 M -57.048 10.189 L -57.048 1.342 C -55.31 .859 -53.541 .498 -51.754 .25 C -48.496 -.203 -44.779 -.367 -41.533 .229 C -40.387 .437 -39.173 .773 -38.156 1.357 C -37.361 1.816 -36.647 2.4 -36.142 3.176 C -34.164 6.209 -34.815 10.402 -34.815 13.844 C -34.815 14.955 -34.813 16.118 -34.919 17.227 C -34.996 18.026 -35.166 18.848 -35.502 19.581 C -35.81 20.256 -36.292 20.807 -36.874 21.26 C -37.644 21.858 -38.613 22.303 -39.524 22.637 C -40.96 23.159 -42.474 23.555 -43.961 23.903 C -44.999 24.145 -46.045 24.399 -47.068 24.698 C -47.678 24.877 -48.378 25.139 -48.877 25.542 C -49.179 25.784 -49.395 26.09 -49.536 26.438 L -56.27 26.438 C -56.17 25.256 -56.004 24.057 -55.468 22.983 C -55.13 22.309 -54.628 21.756 -54.023 21.311 C -53.266 20.754 -52.343 20.346 -51.458 20.042 C -50.157 19.592 -48.777 19.264 -47.431 18.981 C -46.348 18.754 -45.227 18.512 -44.171 18.18 C -43.541 17.981 -42.813 17.692 -42.309 17.254 C -41.867 16.87 -41.602 16.377 -41.498 15.805 C -41.389 15.197 -41.382 14.512 -41.384 13.896 C -41.392 11.844 -40.919 7.654 -42.382 6.133 C -42.809 5.687 -43.484 5.523 -44.07 5.418 C -46.101 5.047 -48.883 5.289 -50.909 5.578 C -50.967 6.676 -51.014 8.182 -51.779 9.025 C -52.778 10.131 -55.431 10.189 -57.048 10.189 M -89.313 -.01 L -89.313 16.141 C -89.313 18.071 -89.716 19.936 -90.708 21.606 C -91.686 23.252 -93.129 24.43 -94.853 25.239 C -97.018 26.256 -99.531 26.584 -101.902 26.588 C -104.912 26.594 -107.056 26.313 -109.929 25.696 C -112.967 26.209 -115.947 26.594 -119.043 26.588 C -121.414 26.584 -123.927 26.256 -126.092 25.239 C -127.817 24.43 -129.259 23.252 -130.237 21.606 C -131.229 19.936 -131.632 18.071 -131.632 16.141 L -131.632 -.01 C -129.8 -.01 -126.76 .047 -125.601 1.322 C -124.615 2.406 -124.6 4.668 -124.588 6.037 L -124.587 14.744 C -124.587 15.676 -124.464 16.614 -124.136 17.489 C -123.802 18.377 -123.214 19.073 -122.409 19.573 C -121.433 20.182 -120.172 20.344 -119.043 20.344 C -117.184 20.344 -115.592 20.2 -113.751 19.981 L -113.751 8.631 C -112.036 8.631 -109.211 8.689 -108.138 9.871 C -107.386 10.699 -107.27 12.176 -107.222 13.236 C -107.121 15.453 -107.194 17.752 -107.194 19.981 C -105.353 20.2 -103.761 20.344 -101.901 20.344 C -100.773 20.344 -99.512 20.182 -98.536 19.573 C -97.731 19.073 -97.143 18.377 -96.81 17.489 C -96.481 16.614 -96.358 15.676 -96.358 14.744 L -96.357 6.043 C -96.345 4.668 -96.329 2.406 -95.344 1.322 C -94.185 .047 -91.145 -.01 -89.313 -.01 M -157.976 25.594 C -157.211 20.727 -156.784 18.913 -151.125 19.756 C -149.044 20.067 -146.892 20.717 -144.902 19.645 C -144.091 19.209 -143.48 18.575 -143.149 17.711 C -142.805 16.813 -142.69 15.813 -142.69 14.857 L -142.69 11.709 C -142.69 10.756 -142.805 9.764 -143.149 8.867 C -143.483 8.002 -144.087 7.359 -144.895 6.937 C -145.858 6.4 -147.099 6.271 -148.183 6.271 C -150.137 6.271 -151.959 6.924 -153.86 6.93 C -154.491 6.93 -155.105 6.854 -155.717 6.701 C -156.163 6.59 -156.598 6.418 -156.942 6.105 C -158.006 5.139 -158.049 2.549 -158.048 1.018 C -156.49 .699 -154.919 .439 -153.337 .264 C -151.627 .074 -149.905 -.014 -148.184 -.008 C -145.799 -.002 -143.201 .303 -141.025 1.34 C -139.336 2.145 -137.903 3.301 -136.976 4.943 C -136.027 6.629 -135.664 8.508 -135.664 10.426 L -135.664 16.153 C -135.664 18.073 -136.027 19.952 -136.976 21.635 C -137.902 23.278 -139.336 24.436 -141.024 25.241 C -143.201 26.276 -145.799 26.584 -148.184 26.588 C -149.904 26.59 -151.627 26.506 -153.337 26.315 C -154.741 26.159 -156.137 25.934 -157.542 25.661 Z M -186.541 11.17 L -186.541 1.285 C -184.682 .775 -182.793 .385 -180.883 .117 C -178.835 -.166 -176.767 -.303 -174.699 -.297 C -172.331 -.289 -169.813 .029 -167.65 1.047 C -165.926 1.855 -164.492 3.02 -163.517 4.666 C -162.527 6.338 -162.122 8.199 -162.122 10.133 L -162.122 11.93 C -162.122 14.398 -162.425 17.538 -163.852 19.641 C -165.581 22.19 -168.666 22.944 -171.58 23.053 L -172.065 23.071 L -172.065 25.75 L -163.462 25.75 C -163.463 27.282 -163.526 29.772 -164.562 30.711 C -165.459 31.526 -167.364 31.538 -168.495 31.547 L -172.065 31.549 L -172.065 34.942 L -179.11 34.942 L -179.11 31.549 L -185.27 31.549 C -185.269 30.016 -185.207 27.526 -184.171 26.586 C -183.274 25.772 -181.369 25.76 -180.238 25.75 L -179.11 25.75 L -179.11 17.842 L -174.861 17.842 C -173.337 17.842 -171.518 17.592 -170.423 16.417 C -169.359 15.275 -169.148 13.418 -169.148 11.93 L -169.148 11.521 C -169.148 10.596 -169.278 9.664 -169.604 8.805 C -169.928 7.896 -170.534 7.195 -171.353 6.691 C -172.325 6.094 -173.574 5.93 -174.695 5.922 C -176.238 5.91 -178.559 5.98 -179.972 6.369 L -179.992 6.732 C -180.028 7.375 -180.093 8.055 -180.266 8.676 C -180.392 9.133 -180.582 9.568 -180.904 9.924 C -181.982 11.111 -184.819 11.17 -186.541 11.17 M -67.513 17.735 C -65.8 17.735 -62.978 17.793 -61.907 18.975 C -60.989 19.985 -60.975 22.104 -60.964 23.379 L -60.963 33.649 C -62.821 34.161 -64.712 34.549 -66.621 34.815 C -68.663 35.098 -70.724 35.241 -72.786 35.235 C -75.16 35.229 -77.668 34.907 -79.836 33.887 C -81.554 33.079 -83.005 31.915 -83.981 30.274 C -84.975 28.6 -85.382 26.735 -85.382 24.801 L -85.382 10.426 C -85.382 8.486 -84.983 6.602 -83.982 4.924 C -83.001 3.279 -81.563 2.109 -79.837 1.303 C -77.674 .293 -75.152 -.008 -72.787 -.008 C -71.428 -.008 -70.068 .033 -68.714 .141 C -67.416 .242 -66.124 .385 -64.833 .557 C -63.871 .686 -62.91 .834 -61.954 1.01 L -61.906 1.016 C -62.014 2.418 -62.275 5.148 -63.46 6.062 C -64.457 6.828 -66.421 6.682 -67.592 6.596 L -70.78 6.338 C -71.453 6.305 -72.116 6.268 -72.791 6.271 C -73.903 6.279 -75.161 6.43 -76.131 6.992 C -76.947 7.445 -77.559 8.1 -77.897 8.975 C -78.229 9.834 -78.343 10.762 -78.331 11.672 L -78.331 23.405 C -78.343 24.331 -78.228 25.27 -77.897 26.139 C -77.559 27.028 -76.959 27.719 -76.153 28.221 C -75.175 28.831 -73.919 28.993 -72.787 28.993 C -72.285 28.993 -71.783 28.989 -71.281 28.973 C -70.777 28.958 -70.275 28.926 -69.762 28.883 C -69.159 28.821 -68.557 28.756 -67.956 28.682 L -67.513 28.629 Z " fill="#652d89" fill-rule="evenodd"/>
</g>
<clipPath id="cp1">
<path transform="matrix(1,0,0,-1,0,219.504)" d="M 73.107 69.072 L 175.017 69.072 L 175.017 208.65799 L 73.107 208.65799 Z "/>
</clipPath>
<g clip-path="url(#cp1)">
<path transform="matrix(1,0,0,-1,124.1288,104.305599)" d="M 0 0 L 1.706 1.706 C 1.133 3.583 1.602 5.707 3.105 7.167 C 4.114 8.147 5.413 8.657 6.715 8.69 C 7.564 8.795 8.433 8.694 9.241 8.4 L 5.353 4.621 L 8.27 1.632 L 12.152 5.409 C 12.424 4.585 12.5 3.717 12.368 2.87 C 12.298 1.565 11.751 .288 10.742 -.689 C 9.233 -2.154 7.103 -2.563 5.243 -1.937 L 3.456 -3.726 L -1.977 -9.156 L -3.939 -11.117 C -3.678 -12.494 -4.079 -13.978 -5.146 -15.046 C -6.864 -16.762 -9.645 -16.762 -11.36 -15.046 C -13.075 -13.327 -13.075 -10.549 -11.36 -8.833 C -10.337 -7.807 -8.939 -7.41 -7.609 -7.606 L -5.433 -5.43 Z " fill="#663089"/>
<path transform="matrix(1,0,0,-1,118.702,109.7363)" d="M 0 0 L -5.997 6.467 C -6.108 6.567 -6.195 6.689 -6.236 6.841 L -7.826 13.121 C -7.901 13.391 -7.816 13.668 -7.623 13.858 L -7.613 13.864 C -7.409 14.045 -7.128 14.105 -6.866 14.02 L -.723 11.958 C -.574 11.906 -.458 11.804 -.37 11.686 L 5.433 5.43 L 8.889 1.703 L 15.038 -4.928 C 15.784 -5.736 15.764 -6.967 14.989 -7.691 L 12.174 -10.294 C 11.401 -11.025 10.16 -10.953 9.407 -10.147 L 3.456 -3.727 Z " fill="#663089"/>
<path transform="matrix(1,0,0,-1,144.1566,100.7788)" d="M 0 0 C -.901 0 -1.634 .73 -1.634 1.634 C -1.634 2.537 -.901 3.267 0 3.267 C .901 3.267 1.634 2.537 1.634 1.634 C 1.634 .73 .901 0 0 0 " fill="#663089"/>
<path transform="matrix(1,0,0,-1,139.7503,92.7177)" d="M 0 0 C -.903 0 -1.634 .73 -1.634 1.634 C -1.634 2.537 -.903 3.268 0 3.268 C .899 3.268 1.634 2.537 1.634 1.634 C 1.634 .73 .899 0 0 0 " fill="#663089"/>
<path transform="matrix(1,0,0,-1,108.5121,92.065898)" d="M 0 0 C -.901 0 -1.634 .73 -1.634 1.634 C -1.634 2.538 -.901 3.268 0 3.268 C .902 3.268 1.634 2.538 1.634 1.634 C 1.634 .73 .902 0 0 0 " fill="#663089"/>
<path transform="matrix(1,0,0,-1,103.2162,96.7036)" d="M 0 0 C .903 0 1.634 -.73 1.634 -1.634 C 1.634 -2.537 .903 -3.268 0 -3.268 C -.9 -3.268 -1.634 -2.537 -1.634 -1.634 C -1.634 -.73 -.9 0 0 0 " fill="#663089"/>
<path transform="matrix(1,0,0,-1,104.5731,110.708499)" d="M 0 0 C -.261 -.045 -.526 -.052 -.789 -.014 L -1.361 -.939 L -2.21 -.609 L -1.982 .458 C -2.2 .613 -2.391 .796 -2.549 1.005 L -3.612 .756 L -3.974 1.591 L -3.057 2.185 C -3.1 2.444 -3.105 2.705 -3.069 2.975 L -4.007 3.53 L -3.672 4.379 L -2.596 4.157 C -2.442 4.377 -2.255 4.567 -2.048 4.725 L -2.319 5.788 L -1.479 6.15 L -.874 5.233 C -.617 5.274 -.356 5.276 -.091 5.245 L .473 6.191 L 1.322 5.858 L 1.098 4.775 C 1.314 4.622 1.503 4.439 1.663 4.231 L 2.728 4.504 L 3.094 3.665 L 2.173 3.061 C 2.218 2.8 2.224 2.537 2.192 2.274 L 3.125 1.702 L 2.792 .849 L 1.721 1.079 C 1.566 .859 1.383 .67 1.176 .508 L 1.429 -.551 L .592 -.915 Z " fill="#663089"/>
<path transform="matrix(1,0,0,-1,106.8788,120.067798)" d="M 0 0 C -.9 0 -1.634 .73 -1.634 1.633 C -1.634 2.537 -.9 3.267 0 3.267 C .903 3.267 1.634 2.537 1.634 1.633 C 1.634 .73 .903 0 0 0 " fill="#663089"/>
<path transform="matrix(1,0,0,-1,112.6693,127.4985)" d="M 0 0 C -.899 0 -1.633 .73 -1.633 1.634 C -1.633 2.537 -.899 3.268 0 3.268 C .904 3.268 1.634 2.537 1.634 1.634 C 1.634 .73 .904 0 0 0 " fill="#663089"/>
<path transform="matrix(1,0,0,-1,96.8622,48.914)" d="M 0 0 C -.194 1.229 .109 2.416 .74 3.388 L -2.926 7.055 C -4.33 5.337 -5.175 3.146 -5.175 .759 C -5.175 -1.628 -4.33 -3.82 -2.925 -5.538 L .732 -1.881 C .373 -1.324 .109 -.695 0 0 " fill="#663089"/>
<path transform="matrix(1,0,0,-1,107.9476,55.867097)" d="M 0 0 L -3.663 3.657 C -4.225 3.291 -4.858 3.036 -5.542 2.927 C -5.799 2.886 -6.056 2.864 -6.309 2.864 C -7.28 2.864 -8.182 3.158 -8.943 3.652 L -12.596 0 C -10.879 -1.406 -8.687 -2.251 -6.299 -2.251 C -3.912 -2.251 -1.719 -1.406 0 0 " fill="#663089"/>
<path transform="matrix(1,0,0,-1,145.7064,38.1933)" d="M 0 0 C -3.031 0 -5.744 -1.363 -7.575 -3.502 L 7.57 -3.502 C 5.742 -1.363 3.028 0 0 0 " fill="#663089"/>
<path transform="matrix(1,0,0,-1,100.891,43.36859)" d="M 0 0 C 1.256 .2 2.438 -.103 3.398 -.73 L 7.057 2.925 C 5.337 4.331 3.145 5.175 .757 5.175 C -1.63 5.175 -3.822 4.331 -5.54 2.925 L -1.883 -.734 C -1.328 -.372 -.697 -.109 0 0 " fill="#663089"/>
<path transform="matrix(1,0,0,-1,106.4325,47.398897)" d="M 0 0 C .191 -1.192 -.082 -2.384 -.738 -3.39 L 2.929 -7.053 C 4.334 -5.335 5.18 -3.143 5.18 -.756 C 5.18 1.631 4.334 3.822 2.929 5.54 L -.728 1.886 C -.368 1.33 -.109 .695 0 0 " fill="#663089"/>
<path transform="matrix(1,0,0,-1,101.6507,45.30809)" d="M 0 0 C -.148 0 -.296 -.012 -.446 -.037 C -1.996 -.282 -3.057 -1.745 -2.812 -3.294 C -2.574 -4.812 -1.114 -5.908 .442 -5.658 C 1.193 -5.538 1.855 -5.133 2.301 -4.515 C 2.747 -3.902 2.926 -3.152 2.806 -2.405 C 2.589 -1.032 1.384 0 0 0 " fill="#663089"/>
<path transform="matrix(1,0,0,-1,136.8099,43.689897)" d="M 0 0 C -.536 -1.065 -.896 -2.231 -1.019 -3.47 L 18.807 -3.47 C 18.685 -2.231 18.325 -1.065 17.789 0 Z " fill="#663089"/>
<path transform="matrix(1,0,0,-1,145.7064,58.118104)" d="M 0 0 C 3.028 0 5.74 1.363 7.568 3.503 L -7.572 3.503 C -5.744 1.363 -3.031 0 0 0 " fill="#663089"/>
<path transform="matrix(1,0,0,-1,156.1605,124.7382)" d="M 0 0 C .354 .398 .702 .799 1.047 1.202 C .703 .845 .334 .514 -.055 .214 Z " fill="#662f88"/>
<path transform="matrix(1,0,0,-1,157.2821,123.452098)" d="M 0 0 C .31 .361 .615 .726 .918 1.091 L .909 1.093 C .631 .704 .324 .342 0 0 " fill="#662f88"/>
<path transform="matrix(1,0,0,-1,136.8118,52.62149)" d="M 0 0 L 17.785 0 C 18.323 1.063 18.681 2.229 18.805 3.468 L -1.02 3.468 C -.896 2.229 -.538 1.063 0 0 " fill="#663089"/>
<path transform="matrix(1,0,0,-1,148.0882,106.226)" d="M 0 0 L -1.226 1.887 C -2.605 1.554 -3.935 .979 -5.155 .166 L -4.599 -2.014 C -5.387 -2.622 -6.09 -3.35 -6.685 -4.179 L -8.887 -3.715 C -9.646 -4.965 -10.166 -6.317 -10.444 -7.709 L -8.511 -8.858 C -8.642 -9.871 -8.618 -10.883 -8.446 -11.864 L -10.335 -13.092 C -10.002 -14.47 -9.428 -15.802 -8.614 -17.019 L -6.433 -16.464 C -6.086 -16.913 -5.491 -17.542 -4.861 -18.08 C -3.92 -16.678 -3.03 -15.231 -2.213 -13.75 C -3.083 -12.801 -3.625 -11.547 -3.625 -10.156 C -3.625 -7.28 -1.357 -4.961 1.491 -4.844 C 1.936 -3.219 2.255 -1.577 2.416 .076 C 1.701 .087 .526 .09 0 0 " fill="#663089"/>
<path transform="matrix(1,0,0,-1,114.8724,137.24359)" d="M 0 0 C .024 .032 .054 .058 .078 .089 L .069 .098 C .031 .043 0 0 0 0 " fill="#662f88"/>
<path transform="matrix(1,0,0,-1,117.1981,134.9541)" d="M 0 0 C -.059 -.044 -.786 -.59 -.044 -.039 C -.029 -.027 -.015 -.012 0 -.001 Z " fill="#662f88"/>
<path transform="matrix(1,0,0,-1,114.9315,137.1372)" d="M 0 0 L .01 -.009 C .136 .169 .35 .475 0 0 " fill="#662f88"/>
<path transform="matrix(1,0,0,-1,130.4124,135.142)" d="M 0 0 C 0 0 .767 -.542 -.051 .057 L 1.014 4.549 L -2.512 6.041 L -4.968 2.15 C -6.044 2.322 -7.142 2.338 -8.245 2.177 L -10.68 6.113 L -14.218 4.683 L -13.214 .188 C -13.212 .19 -13.204 .196 -13.204 .196 C -13.207 .194 -13.21 .19 -13.214 .187 L -13.213 .183 C -13.233 .168 -13.241 .163 -13.259 .15 C -14.085 -.458 -14.826 -1.181 -15.462 -2.012 L -12.159 -4.999 C -10.966 -3.281 -8.982 -2.156 -6.727 -2.156 C -4.477 -2.156 -2.496 -3.277 -1.302 -4.989 L 1.993 -2.01 C 1.4 -1.26 .742 -.582 0 0 " fill="#663089"/>
<path transform="matrix(1,0,0,-1,134.6429,142.4697)" d="M 0 0 C .137 -.948 0 .003 0 .003 Z " fill="#662f88"/>
<path transform="matrix(1,0,0,-1,164.3206,52.309999)" d="M 0 0 C -.107 -.586 -.683 -.983 -1.281 -.882 L -3.004 -.578 C -3.137 -.555 -3.257 -.502 -3.372 -.434 C -3.7 -1.489 -4.142 -2.529 -4.712 -3.53 C -4.582 -3.563 -4.453 -3.616 -4.34 -3.702 L -2.92 -4.716 C -2.43 -5.068 -2.322 -5.758 -2.677 -6.238 L -3.732 -7.681 C -4.087 -8.167 -4.78 -8.271 -5.269 -7.919 L -6.688 -6.9 C -6.807 -6.813 -6.904 -6.704 -6.978 -6.585 C -7.763 -7.418 -8.633 -8.15 -9.558 -8.783 C -9.443 -8.873 -9.342 -8.986 -9.268 -9.126 L -8.442 -10.656 C -8.162 -11.186 -8.369 -11.852 -8.9 -12.133 L -10.483 -12.968 C -11.019 -13.248 -11.685 -13.042 -11.971 -12.516 L -12.794 -10.978 C -12.868 -10.839 -12.909 -10.693 -12.915 -10.545 C -13.984 -10.951 -15.094 -11.237 -16.223 -11.404 C -16.153 -11.544 -16.106 -11.692 -16.101 -11.858 L -16.037 -13.599 C -16.015 -14.192 -16.494 -14.699 -17.102 -14.718 L -18.889 -14.787 C -19.494 -14.806 -20.005 -14.333 -20.026 -13.733 L -20.09 -11.995 C -20.096 -11.827 -20.051 -11.669 -19.985 -11.523 C -21.12 -11.426 -22.25 -11.217 -23.362 -10.871 C -23.355 -11.03 -23.374 -11.194 -23.445 -11.35 L -24.16 -12.937 C -24.407 -13.484 -25.063 -13.733 -25.612 -13.488 L -27.256 -12.765 C -27.803 -12.52 -28.056 -11.874 -27.812 -11.327 L -27.094 -9.741 C -27.024 -9.583 -26.913 -9.455 -26.786 -9.352 C -27.797 -8.756 -28.71 -8.063 -29.532 -7.298 C -29.598 -7.448 -29.689 -7.59 -29.824 -7.703 L -31.169 -8.818 C -31.633 -9.2 -32.33 -9.144 -32.719 -8.682 L -33.876 -7.319 C -34.263 -6.859 -34.199 -6.174 -33.738 -5.785 L -32.394 -4.669 C -32.26 -4.558 -32.104 -4.494 -31.942 -4.457 C -32.575 -3.499 -33.109 -2.486 -33.518 -1.427 C -33.642 -1.526 -33.78 -1.608 -33.946 -1.649 L -35.651 -2.071 C -36.236 -2.218 -36.835 -1.855 -36.983 -1.273 L -37.416 .45 C -37.56 1.03 -37.202 1.626 -36.612 1.768 L -34.912 2.19 C -34.75 2.231 -34.584 2.224 -34.427 2.19 C -34.575 3.314 -34.604 4.451 -34.505 5.586 C -34.657 5.551 -34.813 5.543 -34.974 5.577 L -36.686 5.939 C -37.281 6.062 -37.659 6.647 -37.535 7.232 L -37.165 8.973 C -37.04 9.559 -36.448 9.935 -35.858 9.81 L -34.141 9.45 C -33.993 9.42 -33.858 9.36 -33.74 9.276 C -33.411 10.25 -32.978 11.206 -32.441 12.13 C -32.4 12.201 -32.354 12.261 -32.314 12.33 C -32.447 12.366 -32.577 12.429 -32.696 12.522 L -34.081 13.589 C -34.557 13.957 -34.639 14.65 -34.267 15.122 L -33.16 16.521 C -32.792 16.995 -32.094 17.077 -31.621 16.708 L -30.235 15.64 C -30.124 15.548 -30.032 15.443 -29.962 15.324 C -29.158 16.136 -28.28 16.847 -27.335 17.456 C -27.433 17.548 -27.52 17.647 -27.581 17.771 L -28.352 19.333 C -28.613 19.869 -28.385 20.529 -27.842 20.792 L -26.231 21.571 C -25.684 21.833 -25.024 21.605 -24.759 21.068 L -23.992 19.507 C -23.932 19.388 -23.904 19.263 -23.895 19.137 C -22.824 19.508 -21.712 19.762 -20.583 19.904 C -20.625 20.015 -20.657 20.14 -20.657 20.268 L -20.657 22.004 C -20.657 22.606 -20.16 23.095 -19.557 23.095 L -17.765 23.095 C -17.158 23.095 -16.665 22.606 -16.665 22.004 L -16.665 20.268 C -16.665 20.147 -16.696 20.038 -16.733 19.929 C -15.982 19.841 -15.232 19.688 -14.492 19.487 C -14.482 19.605 -14.473 19.721 -14.422 19.835 L -13.768 21.45 C -13.542 22.003 -12.894 22.273 -12.331 22.047 L -10.666 21.384 C -10.111 21.158 -9.838 20.523 -10.063 19.966 L -10.723 18.352 C -10.767 18.243 -10.842 18.151 -10.916 18.064 C -10.822 18.013 -10.727 17.974 -10.631 17.921 C -9.722 17.398 -8.886 16.798 -8.123 16.14 C -8.068 16.237 -8.006 16.333 -7.92 16.413 L -6.618 17.575 C -6.17 17.974 -5.467 17.937 -5.068 17.491 L -3.859 16.167 C -3.456 15.723 -3.497 15.034 -3.942 14.633 L -5.247 13.468 C -5.343 13.391 -5.446 13.338 -5.555 13.291 C -4.899 12.363 -4.35 11.377 -3.913 10.341 C -3.814 10.408 -3.713 10.472 -3.592 10.505 L -1.904 10.988 C -1.324 11.151 -.71 10.811 -.543 10.236 L -.046 8.529 C .119 7.954 -.226 7.349 -.802 7.183 L -2.49 6.7 C -2.613 6.667 -2.733 6.667 -2.854 6.673 C -2.675 5.567 -2.626 4.441 -2.69 3.308 C -2.568 3.333 -2.443 3.341 -2.309 3.32 L -.58 3.018 C .012 2.911 .415 2.342 .308 1.75 Z M -13.816 -53.84 C -13.978 -55.493 -14.296 -57.135 -14.742 -58.76 C -15.581 -61.817 -16.872 -64.807 -18.446 -67.666 C -19.262 -69.147 -20.153 -70.594 -21.094 -71.996 C -24.333 -76.824 -28.163 -81.125 -31.572 -84.532 L -31.915 -84.842 L -35.21 -87.821 L -35.229 -87.838 C -38.377 -90.697 -40.592 -92.367 -40.644 -92.406 L -40.634 -92.414 L -40.654 -92.414 L -40.644 -92.406 C -40.697 -92.367 -42.912 -90.697 -46.059 -87.838 L -46.067 -87.831 L -49.371 -84.844 C -49.395 -84.876 -49.424 -84.902 -49.448 -84.934 C -49.448 -84.934 -49.418 -84.891 -49.379 -84.836 L -49.389 -84.827 L -49.716 -84.532 C -57.543 -76.71 -67.595 -64.175 -67.595 -51.377 C -67.595 -43.816 -62.977 -36.04 -55.382 -31.496 C -55.001 -32.463 -54.534 -33.403 -53.958 -34.294 L -53.954 -34.293 L -51.156 -33.62 C -50.391 -34.639 -49.474 -35.551 -48.418 -36.321 L -49.051 -39.128 L -49.051 -39.13 C -48.907 -39.221 -48.755 -39.294 -48.609 -39.379 C -48.342 -39.534 -48.077 -39.693 -47.803 -39.832 C -47.739 -39.864 -47.672 -39.89 -47.607 -39.921 C -47.239 -40.102 -46.867 -40.271 -46.489 -40.422 L -46.483 -40.424 L -46.481 -40.425 C -45.661 -40.749 -44.821 -41.007 -43.967 -41.19 L -42.462 -38.735 C -41.171 -38.918 -39.874 -38.903 -38.616 -38.706 L -37.08 -41.14 C -35.31 -40.735 -33.596 -40.022 -32.025 -39.006 L -32.026 -39.002 L -32.025 -39.002 L -32.699 -36.204 C -31.681 -35.438 -30.768 -34.521 -29.998 -33.466 L -27.191 -34.099 L -27.19 -34.099 L -27.188 -34.099 C -27.1 -33.958 -27.028 -33.809 -26.944 -33.666 C -26.787 -33.396 -26.626 -33.127 -26.486 -32.851 C -26.455 -32.789 -26.431 -32.724 -26.4 -32.661 C -26.219 -32.291 -26.048 -31.917 -25.897 -31.537 C -25.896 -31.534 -25.895 -31.531 -25.894 -31.529 L -25.895 -31.529 C -25.892 -31.522 -25.89 -31.515 -25.887 -31.509 C -18.304 -36.054 -13.694 -43.823 -13.694 -51.377 C -13.694 -52.199 -13.737 -53.021 -13.816 -53.84 M -29.678 -90.16 L -29.678 -90.156 C -29.678 -90.156 -29.541 -91.108 -29.678 -90.16 M -69.666 -13.49 L -71.31 -12.765 C -71.857 -12.522 -72.11 -11.875 -71.867 -11.327 L -71.148 -9.744 C -71.078 -9.583 -70.967 -9.457 -70.84 -9.354 C -71.851 -8.756 -72.764 -8.063 -73.586 -7.298 C -73.652 -7.45 -73.744 -7.592 -73.878 -7.703 L -75.223 -8.818 C -75.687 -9.2 -76.384 -9.144 -76.773 -8.684 L -77.93 -7.321 C -78.317 -6.859 -78.253 -6.174 -77.792 -5.785 L -76.448 -4.671 C -76.314 -4.558 -76.158 -4.496 -75.997 -4.459 C -76.629 -3.501 -77.163 -2.486 -77.571 -1.429 C -77.696 -1.528 -77.834 -1.61 -78 -1.651 L -79.706 -2.073 C -80.29 -2.22 -80.89 -1.857 -81.038 -1.275 L -81.47 .448 C -81.614 1.03 -81.256 1.626 -80.666 1.768 L -78.966 2.189 C -78.804 2.231 -78.639 2.222 -78.481 2.189 C -78.629 3.312 -78.658 4.451 -78.559 5.586 C -78.711 5.551 -78.867 5.543 -79.028 5.575 L -80.74 5.939 C -81.335 6.06 -81.713 6.647 -81.589 7.23 L -81.219 8.973 C -81.094 9.557 -80.502 9.933 -79.912 9.81 L -78.194 9.448 C -78.047 9.418 -77.912 9.358 -77.793 9.274 C -77.464 10.25 -77.032 11.206 -76.495 12.129 C -76.454 12.199 -76.407 12.261 -76.368 12.33 C -76.501 12.365 -76.631 12.427 -76.75 12.521 L -78.135 13.589 C -78.611 13.957 -78.693 14.65 -78.321 15.12 L -77.213 16.52 C -76.846 16.995 -76.148 17.075 -75.675 16.707 L -74.289 15.638 C -74.178 15.548 -74.086 15.441 -74.016 15.322 C -73.212 16.134 -72.334 16.847 -71.39 17.454 C -71.487 17.546 -71.575 17.647 -71.635 17.77 L -72.406 19.332 C -72.667 19.869 -72.439 20.527 -71.895 20.79 L -70.286 21.569 C -69.738 21.833 -69.079 21.604 -68.813 21.068 L -68.046 19.504 C -67.986 19.388 -67.958 19.261 -67.949 19.135 C -66.878 19.508 -65.766 19.762 -64.639 19.902 C -64.68 20.015 -64.713 20.14 -64.713 20.268 L -64.713 22.004 C -64.713 22.604 -64.214 23.095 -63.61 23.095 L -61.821 23.095 C -61.212 23.095 -60.719 22.604 -60.719 22.004 L -60.719 20.268 C -60.719 20.147 -60.752 20.036 -60.789 19.929 C -60.038 19.841 -59.288 19.686 -58.546 19.485 C -58.537 19.604 -58.527 19.719 -58.478 19.833 L -57.822 21.448 C -57.596 22.003 -56.948 22.273 -56.387 22.047 L -54.722 21.381 C -54.167 21.158 -53.895 20.521 -54.118 19.966 L -54.778 18.352 C -54.823 18.241 -54.897 18.151 -54.971 18.064 C -54.876 18.013 -54.78 17.974 -54.687 17.921 C -53.775 17.398 -52.94 16.798 -52.177 16.14 C -52.124 16.235 -52.062 16.331 -51.975 16.411 L -50.674 17.573 C -50.224 17.974 -49.523 17.936 -49.124 17.491 L -47.915 16.167 C -47.51 15.723 -47.553 15.032 -47.999 14.633 L -49.303 13.468 C -49.396 13.389 -49.5 13.338 -49.609 13.291 C -48.953 12.363 -48.404 11.375 -47.967 10.339 C -47.87 10.408 -47.769 10.47 -47.648 10.503 L -45.958 10.986 C -45.38 11.151 -44.767 10.811 -44.599 10.236 L -44.101 8.529 C -43.937 7.954 -44.282 7.347 -44.858 7.181 L -46.544 6.7 C -46.666 6.667 -46.788 6.667 -46.908 6.671 C -46.729 5.565 -46.683 4.439 -46.747 3.307 C -46.622 3.332 -46.498 3.341 -46.365 3.318 L -44.636 3.017 C -44.044 2.909 -43.641 2.34 -43.746 1.75 L -44.053 -.002 C -44.163 -.588 -44.739 -.983 -45.335 -.882 L -47.06 -.578 C -47.192 -.557 -47.313 -.502 -47.426 -.436 C -47.753 -1.491 -48.197 -2.531 -48.766 -3.532 C -48.635 -3.563 -48.509 -3.618 -48.394 -3.702 L -46.976 -4.718 C -46.485 -5.07 -46.376 -5.758 -46.731 -6.241 L -47.788 -7.681 C -48.141 -8.167 -48.836 -8.273 -49.322 -7.921 L -50.742 -6.9 C -50.863 -6.813 -50.958 -6.706 -51.032 -6.587 C -51.819 -7.418 -52.687 -8.15 -53.612 -8.783 C -53.497 -8.873 -53.398 -8.986 -53.324 -9.126 L -52.498 -10.659 C -52.218 -11.186 -52.424 -11.854 -52.956 -12.133 L -54.539 -12.968 C -55.073 -13.248 -55.738 -13.042 -56.024 -12.516 L -56.85 -10.978 C -56.924 -10.842 -56.963 -10.693 -56.971 -10.545 C -58.04 -10.951 -59.148 -11.237 -60.279 -11.406 C -60.207 -11.546 -60.161 -11.694 -60.156 -11.86 L -60.092 -13.599 C -60.069 -14.192 -60.55 -14.701 -61.155 -14.72 L -62.943 -14.789 C -63.55 -14.808 -64.059 -14.333 -64.082 -13.733 L -64.146 -11.995 C -64.15 -11.829 -64.105 -11.669 -64.039 -11.525 C -65.174 -11.428 -66.304 -11.217 -67.416 -10.873 C -67.41 -11.03 -67.427 -11.196 -67.499 -11.352 L -68.214 -12.938 C -68.461 -13.486 -69.117 -13.733 -69.666 -13.49 M -37.139 -19.964 C -38.925 -21.875 -40.652 -23.161 -40.652 -23.161 C -40.652 -23.161 -42.369 -21.879 -44.147 -19.974 C -46.06 -17.924 -48.043 -15.152 -48.043 -12.444 L -46.974 -11.151 L -40.644 -3.493 L -34.307 -11.158 L -33.243 -12.444 C -33.243 -15.148 -35.225 -17.916 -37.139 -19.964 M -35.048 -29.377 C -35.791 -30.5 -36.896 -31.422 -38.151 -31.926 C -38.152 -31.918 -38.154 -31.91 -38.155 -31.903 C -39.825 -32.557 -41.481 -32.558 -43.122 -31.904 C -43.124 -31.91 -43.124 -31.917 -43.126 -31.924 C -44.796 -31.252 -46.207 -29.837 -46.878 -28.168 C -46.871 -28.166 -46.862 -28.165 -46.855 -28.164 C -46.858 -28.154 -46.861 -28.145 -46.865 -28.136 C -44.892 -27.717 -42.817 -27.484 -40.644 -27.484 C -38.467 -27.484 -36.388 -27.717 -34.412 -28.138 L -34.404 -28.139 C -34.409 -28.149 -34.412 -28.16 -34.415 -28.17 C -34.409 -28.171 -34.402 -28.172 -34.395 -28.174 C -34.562 -28.588 -34.802 -29.007 -35.048 -29.377 C -34.948 -29.228 -35.135 -29.508 -35.048 -29.377 M -40.656 38.337 C -34.022 38.337 -27.667 36.41 -22.242 32.833 C -22.701 32.576 -23.192 32.34 -23.636 32.073 C -31.619 27.285 -37.971 20.414 -40.671 12.17 C -43.374 20.414 -49.724 27.285 -57.707 32.073 C -58.135 32.33 -58.606 32.556 -59.046 32.802 C -53.612 36.376 -47.239 38.337 -40.656 38.337 M 1.498 -7.935 C 3.587 -4.43 4.812 -.35 4.812 4.017 C 4.812 4.076 4.804 4.132 4.804 4.19 C 4.829 27.412 9.716 40.319 9.716 40.319 L 8.58 40.319 C -1.343 40.319 -11.262 38.141 -19.379 34.295 C -25.534 38.742 -32.908 41.149 -40.629 41.149 C -48.294 41.149 -55.713 38.723 -61.874 34.281 C -69.999 38.137 -79.934 40.319 -89.866 40.319 L -91.005 40.319 C -91.005 40.319 -86.116 27.412 -86.09 4.19 C -86.09 4.132 -86.096 4.076 -86.096 4.017 C -86.096 -.35 -84.875 -4.43 -82.786 -7.935 C -103.443 -34.163 -83.502 -69.772 -51.665 -90.911 C -50.073 -91.968 -48.452 -92.988 -46.804 -93.97 C -44.787 -95.172 -42.733 -96.318 -40.644 -97.396 L -40.642 -97.396 C -38.54 -96.311 -36.482 -95.141 -34.453 -93.931 C -32.821 -92.958 -31.213 -91.954 -29.637 -90.908 C -23.029 -86.52 -16.925 -81.52 -11.598 -76.098 C -10.414 -74.894 -9.265 -73.671 -8.161 -72.428 L -8.215 -72.215 C -7.826 -71.914 -7.458 -71.583 -7.112 -71.227 C -7.088 -71.199 -7.063 -71.17 -7.039 -71.142 C -6.714 -70.8 -6.408 -70.438 -6.129 -70.049 L -6.12 -70.051 C -5.045 -68.759 -4.015 -67.45 -3.031 -66.125 C 10.95 -47.3 15.341 -25.511 1.498 -7.935 " fill="#663089"/>
</g>
</g>
</g>
</svg>
